<mxfile host="app.diagrams.net" modified="2023-10-02T05:46:02.428Z" agent="Mozilla/5.0 (Macintosh; Intel Mac OS X 10_15_7) AppleWebKit/537.36 (KHTML, like Gecko) Chrome/117.0.0.0 Safari/537.36" etag="7Q08fJoFZOk6SOGvMfCC" version="22.0.0" type="device">
  <diagram name="Page-1" id="x5Yvnk0IaUmsOu8Pw7_j">
    <mxGraphModel dx="1687" dy="873" grid="1" gridSize="10" guides="1" tooltips="1" connect="1" arrows="1" fold="1" page="1" pageScale="1" pageWidth="827" pageHeight="1169" math="0" shadow="0">
      <root>
        <mxCell id="0" />
        <mxCell id="1" parent="0" />
        <mxCell id="g4gXIRk081IBuNWjfbHW-3" value="" style="edgeStyle=orthogonalEdgeStyle;rounded=0;orthogonalLoop=1;jettySize=auto;html=1;" edge="1" parent="1" source="g4gXIRk081IBuNWjfbHW-1" target="g4gXIRk081IBuNWjfbHW-2">
          <mxGeometry relative="1" as="geometry">
            <Array as="points">
              <mxPoint x="240" y="130" />
              <mxPoint x="240" y="130" />
            </Array>
          </mxGeometry>
        </mxCell>
        <mxCell id="g4gXIRk081IBuNWjfbHW-1" value="Start" style="strokeWidth=2;html=1;shape=mxgraph.dfd.start;whiteSpace=wrap;dashed=0;" vertex="1" parent="1">
          <mxGeometry x="190" y="20" width="100" height="60" as="geometry" />
        </mxCell>
        <mxCell id="g4gXIRk081IBuNWjfbHW-5" value="" style="edgeStyle=orthogonalEdgeStyle;rounded=0;orthogonalLoop=1;jettySize=auto;html=1;" edge="1" parent="1" source="g4gXIRk081IBuNWjfbHW-2" target="g4gXIRk081IBuNWjfbHW-4">
          <mxGeometry relative="1" as="geometry" />
        </mxCell>
        <mxCell id="g4gXIRk081IBuNWjfbHW-2" value="&quot;Please input a number between 1 to 100 exclusive&quot;" style="shape=parallelogram;perimeter=parallelogramPerimeter;whiteSpace=wrap;html=1;fixedSize=1;strokeWidth=2;" vertex="1" parent="1">
          <mxGeometry x="165" y="150" width="150" height="70" as="geometry" />
        </mxCell>
        <mxCell id="g4gXIRk081IBuNWjfbHW-7" value="" style="edgeStyle=orthogonalEdgeStyle;rounded=0;orthogonalLoop=1;jettySize=auto;html=1;" edge="1" parent="1" source="g4gXIRk081IBuNWjfbHW-4" target="g4gXIRk081IBuNWjfbHW-6">
          <mxGeometry relative="1" as="geometry" />
        </mxCell>
        <mxCell id="g4gXIRk081IBuNWjfbHW-4" value="user_pick =number user pick and convert to integer" style="whiteSpace=wrap;html=1;strokeWidth=2;" vertex="1" parent="1">
          <mxGeometry x="180" y="305" width="120" height="60" as="geometry" />
        </mxCell>
        <mxCell id="g4gXIRk081IBuNWjfbHW-9" value="" style="edgeStyle=orthogonalEdgeStyle;rounded=0;orthogonalLoop=1;jettySize=auto;html=1;" edge="1" parent="1" source="g4gXIRk081IBuNWjfbHW-6" target="g4gXIRk081IBuNWjfbHW-8">
          <mxGeometry relative="1" as="geometry" />
        </mxCell>
        <mxCell id="g4gXIRk081IBuNWjfbHW-6" value="total_guess=1" style="whiteSpace=wrap;html=1;strokeWidth=2;" vertex="1" parent="1">
          <mxGeometry x="180" y="445" width="120" height="60" as="geometry" />
        </mxCell>
        <mxCell id="g4gXIRk081IBuNWjfbHW-11" value="" style="edgeStyle=orthogonalEdgeStyle;rounded=0;orthogonalLoop=1;jettySize=auto;html=1;" edge="1" parent="1" source="g4gXIRk081IBuNWjfbHW-8" target="g4gXIRk081IBuNWjfbHW-10">
          <mxGeometry relative="1" as="geometry" />
        </mxCell>
        <mxCell id="g4gXIRk081IBuNWjfbHW-8" value="lower_bound=1" style="whiteSpace=wrap;html=1;strokeWidth=2;" vertex="1" parent="1">
          <mxGeometry x="180" y="585" width="120" height="60" as="geometry" />
        </mxCell>
        <mxCell id="g4gXIRk081IBuNWjfbHW-13" value="" style="edgeStyle=orthogonalEdgeStyle;rounded=0;orthogonalLoop=1;jettySize=auto;html=1;" edge="1" parent="1" source="g4gXIRk081IBuNWjfbHW-10" target="g4gXIRk081IBuNWjfbHW-12">
          <mxGeometry relative="1" as="geometry" />
        </mxCell>
        <mxCell id="g4gXIRk081IBuNWjfbHW-10" value="upper_bound=100" style="whiteSpace=wrap;html=1;strokeWidth=2;" vertex="1" parent="1">
          <mxGeometry x="180" y="725" width="120" height="60" as="geometry" />
        </mxCell>
        <mxCell id="g4gXIRk081IBuNWjfbHW-15" value="" style="edgeStyle=orthogonalEdgeStyle;rounded=0;orthogonalLoop=1;jettySize=auto;html=1;" edge="1" parent="1" source="g4gXIRk081IBuNWjfbHW-12" target="g4gXIRk081IBuNWjfbHW-14">
          <mxGeometry relative="1" as="geometry" />
        </mxCell>
        <mxCell id="g4gXIRk081IBuNWjfbHW-20" value="" style="edgeStyle=orthogonalEdgeStyle;rounded=0;orthogonalLoop=1;jettySize=auto;html=1;" edge="1" parent="1" source="g4gXIRk081IBuNWjfbHW-12" target="g4gXIRk081IBuNWjfbHW-19">
          <mxGeometry relative="1" as="geometry" />
        </mxCell>
        <mxCell id="g4gXIRk081IBuNWjfbHW-12" value="total_guess&amp;gt;7?" style="rhombus;whiteSpace=wrap;html=1;strokeWidth=2;" vertex="1" parent="1">
          <mxGeometry x="180" y="860" width="120" height="75" as="geometry" />
        </mxCell>
        <mxCell id="g4gXIRk081IBuNWjfbHW-17" value="" style="edgeStyle=orthogonalEdgeStyle;rounded=0;orthogonalLoop=1;jettySize=auto;html=1;" edge="1" parent="1" source="g4gXIRk081IBuNWjfbHW-14" target="g4gXIRk081IBuNWjfbHW-16">
          <mxGeometry relative="1" as="geometry" />
        </mxCell>
        <mxCell id="g4gXIRk081IBuNWjfbHW-14" value="&quot;Computer has lost.&quot;" style="shape=parallelogram;perimeter=parallelogramPerimeter;whiteSpace=wrap;html=1;fixedSize=1;strokeWidth=2;" vertex="1" parent="1">
          <mxGeometry x="170" y="1022.5" width="140" height="60" as="geometry" />
        </mxCell>
        <mxCell id="g4gXIRk081IBuNWjfbHW-16" value="end" style="html=1;dashed=0;whiteSpace=wrap;shape=mxgraph.dfd.start" vertex="1" parent="1">
          <mxGeometry x="200" y="1150" width="80" height="30" as="geometry" />
        </mxCell>
        <mxCell id="g4gXIRk081IBuNWjfbHW-18" value="True" style="text;html=1;strokeColor=none;fillColor=none;align=center;verticalAlign=middle;whiteSpace=wrap;rounded=0;" vertex="1" parent="1">
          <mxGeometry x="180" y="960" width="60" height="20" as="geometry" />
        </mxCell>
        <mxCell id="g4gXIRk081IBuNWjfbHW-23" value="" style="edgeStyle=orthogonalEdgeStyle;rounded=0;orthogonalLoop=1;jettySize=auto;html=1;" edge="1" parent="1" source="g4gXIRk081IBuNWjfbHW-19">
          <mxGeometry relative="1" as="geometry">
            <mxPoint x="660" y="898" as="targetPoint" />
            <Array as="points">
              <mxPoint x="600" y="898" />
              <mxPoint x="600" y="898" />
            </Array>
          </mxGeometry>
        </mxCell>
        <mxCell id="g4gXIRk081IBuNWjfbHW-19" value="computer_guess=(lower_bound+upper_bound)//2&lt;br&gt;(floor division)" style="whiteSpace=wrap;html=1;strokeWidth=2;" vertex="1" parent="1">
          <mxGeometry x="380" y="867.5" width="180" height="60" as="geometry" />
        </mxCell>
        <mxCell id="g4gXIRk081IBuNWjfbHW-21" value="False" style="text;html=1;strokeColor=none;fillColor=none;align=center;verticalAlign=middle;whiteSpace=wrap;rounded=0;" vertex="1" parent="1">
          <mxGeometry x="300" y="867.5" width="60" height="30" as="geometry" />
        </mxCell>
        <mxCell id="g4gXIRk081IBuNWjfbHW-25" value="" style="edgeStyle=orthogonalEdgeStyle;rounded=0;orthogonalLoop=1;jettySize=auto;html=1;" edge="1" parent="1" source="g4gXIRk081IBuNWjfbHW-22" target="g4gXIRk081IBuNWjfbHW-24">
          <mxGeometry relative="1" as="geometry" />
        </mxCell>
        <mxCell id="g4gXIRk081IBuNWjfbHW-22" value="computer_guess&amp;lt;user_pick?" style="rhombus;whiteSpace=wrap;html=1;strokeWidth=2;" vertex="1" parent="1">
          <mxGeometry x="660" y="860" width="200" height="80" as="geometry" />
        </mxCell>
        <mxCell id="g4gXIRk081IBuNWjfbHW-27" value="" style="edgeStyle=orthogonalEdgeStyle;rounded=0;orthogonalLoop=1;jettySize=auto;html=1;" edge="1" parent="1" source="g4gXIRk081IBuNWjfbHW-24" target="g4gXIRk081IBuNWjfbHW-26">
          <mxGeometry relative="1" as="geometry" />
        </mxCell>
        <mxCell id="g4gXIRk081IBuNWjfbHW-24" value="lower_bound=computer_guess+1" style="whiteSpace=wrap;html=1;strokeWidth=2;" vertex="1" parent="1">
          <mxGeometry x="670" y="1030" width="180" height="50" as="geometry" />
        </mxCell>
        <mxCell id="g4gXIRk081IBuNWjfbHW-26" value="total_guess=total_guess+1" style="whiteSpace=wrap;html=1;strokeWidth=2;" vertex="1" parent="1">
          <mxGeometry x="680" y="1170" width="160" height="60" as="geometry" />
        </mxCell>
        <mxCell id="g4gXIRk081IBuNWjfbHW-32" value="" style="endArrow=classic;html=1;rounded=0;entryX=1;entryY=1;entryDx=0;entryDy=0;" edge="1" parent="1" target="g4gXIRk081IBuNWjfbHW-12">
          <mxGeometry width="50" height="50" relative="1" as="geometry">
            <mxPoint x="460" y="1200" as="sourcePoint" />
            <mxPoint x="460" y="930" as="targetPoint" />
          </mxGeometry>
        </mxCell>
        <mxCell id="g4gXIRk081IBuNWjfbHW-33" value="" style="endArrow=none;html=1;rounded=0;" edge="1" parent="1" target="g4gXIRk081IBuNWjfbHW-26">
          <mxGeometry width="50" height="50" relative="1" as="geometry">
            <mxPoint x="460" y="1200" as="sourcePoint" />
            <mxPoint x="440" y="910" as="targetPoint" />
          </mxGeometry>
        </mxCell>
        <mxCell id="g4gXIRk081IBuNWjfbHW-34" value="True" style="text;html=1;strokeColor=none;fillColor=none;align=center;verticalAlign=middle;whiteSpace=wrap;rounded=0;" vertex="1" parent="1">
          <mxGeometry x="690" y="970" width="60" height="20" as="geometry" />
        </mxCell>
        <mxCell id="g4gXIRk081IBuNWjfbHW-35" value="computer_guess&amp;gt;user_pick?" style="rhombus;whiteSpace=wrap;html=1;strokeWidth=2;" vertex="1" parent="1">
          <mxGeometry x="910" y="860" width="190" height="80" as="geometry" />
        </mxCell>
        <mxCell id="g4gXIRk081IBuNWjfbHW-36" value="" style="endArrow=classic;html=1;rounded=0;exitX=1;exitY=0.5;exitDx=0;exitDy=0;" edge="1" parent="1" source="g4gXIRk081IBuNWjfbHW-22">
          <mxGeometry width="50" height="50" relative="1" as="geometry">
            <mxPoint x="390" y="960" as="sourcePoint" />
            <mxPoint x="910" y="900" as="targetPoint" />
          </mxGeometry>
        </mxCell>
        <mxCell id="g4gXIRk081IBuNWjfbHW-37" value="False" style="text;html=1;strokeColor=none;fillColor=none;align=center;verticalAlign=middle;whiteSpace=wrap;rounded=0;" vertex="1" parent="1">
          <mxGeometry x="850" y="877.5" width="60" height="30" as="geometry" />
        </mxCell>
        <mxCell id="g4gXIRk081IBuNWjfbHW-44" value="" style="edgeStyle=orthogonalEdgeStyle;rounded=0;orthogonalLoop=1;jettySize=auto;html=1;" edge="1" parent="1" target="g4gXIRk081IBuNWjfbHW-46">
          <mxGeometry relative="1" as="geometry">
            <mxPoint x="1005" y="940" as="sourcePoint" />
          </mxGeometry>
        </mxCell>
        <mxCell id="g4gXIRk081IBuNWjfbHW-45" value="" style="edgeStyle=orthogonalEdgeStyle;rounded=0;orthogonalLoop=1;jettySize=auto;html=1;" edge="1" parent="1" source="g4gXIRk081IBuNWjfbHW-46">
          <mxGeometry relative="1" as="geometry">
            <mxPoint x="1005" y="1170" as="targetPoint" />
          </mxGeometry>
        </mxCell>
        <mxCell id="g4gXIRk081IBuNWjfbHW-46" value="upper_bound=computer_guess-1" style="whiteSpace=wrap;html=1;strokeWidth=2;" vertex="1" parent="1">
          <mxGeometry x="910" y="1030" width="190" height="60" as="geometry" />
        </mxCell>
        <mxCell id="g4gXIRk081IBuNWjfbHW-47" value="True" style="text;html=1;strokeColor=none;fillColor=none;align=center;verticalAlign=middle;whiteSpace=wrap;rounded=0;" vertex="1" parent="1">
          <mxGeometry x="940" y="970" width="60" height="20" as="geometry" />
        </mxCell>
        <mxCell id="g4gXIRk081IBuNWjfbHW-48" value="total_guess=total_guess+1" style="whiteSpace=wrap;html=1;strokeWidth=2;" vertex="1" parent="1">
          <mxGeometry x="930" y="1170" width="150" height="60" as="geometry" />
        </mxCell>
        <mxCell id="g4gXIRk081IBuNWjfbHW-49" value="" style="endArrow=classic;html=1;rounded=0;exitX=0;exitY=0.5;exitDx=0;exitDy=0;" edge="1" parent="1" source="g4gXIRk081IBuNWjfbHW-48" target="g4gXIRk081IBuNWjfbHW-12">
          <mxGeometry width="50" height="50" relative="1" as="geometry">
            <mxPoint x="730" y="980" as="sourcePoint" />
            <mxPoint x="280" y="920" as="targetPoint" />
          </mxGeometry>
        </mxCell>
        <mxCell id="g4gXIRk081IBuNWjfbHW-52" value="False" style="text;html=1;strokeColor=none;fillColor=none;align=center;verticalAlign=middle;whiteSpace=wrap;rounded=0;" vertex="1" parent="1">
          <mxGeometry x="1110" y="877.5" width="60" height="30" as="geometry" />
        </mxCell>
        <mxCell id="g4gXIRk081IBuNWjfbHW-53" value="" style="endArrow=none;html=1;rounded=0;exitX=1;exitY=0.5;exitDx=0;exitDy=0;" edge="1" parent="1" source="g4gXIRk081IBuNWjfbHW-35">
          <mxGeometry width="50" height="50" relative="1" as="geometry">
            <mxPoint x="730" y="980" as="sourcePoint" />
            <mxPoint x="1200" y="900" as="targetPoint" />
          </mxGeometry>
        </mxCell>
        <mxCell id="g4gXIRk081IBuNWjfbHW-54" value="" style="endArrow=none;html=1;rounded=0;" edge="1" parent="1" target="g4gXIRk081IBuNWjfbHW-55">
          <mxGeometry width="50" height="50" relative="1" as="geometry">
            <mxPoint x="1200" y="900" as="sourcePoint" />
            <mxPoint x="1200" y="1310" as="targetPoint" />
          </mxGeometry>
        </mxCell>
        <mxCell id="g4gXIRk081IBuNWjfbHW-55" value="&quot;bingo!&quot;" style="shape=parallelogram;perimeter=parallelogramPerimeter;whiteSpace=wrap;html=1;fixedSize=1;" vertex="1" parent="1">
          <mxGeometry x="1140" y="1280" width="120" height="60" as="geometry" />
        </mxCell>
        <mxCell id="g4gXIRk081IBuNWjfbHW-56" value="" style="endArrow=classic;html=1;rounded=0;exitX=0;exitY=1;exitDx=0;exitDy=0;entryX=0.5;entryY=0.5;entryDx=0;entryDy=15;entryPerimeter=0;" edge="1" parent="1" source="g4gXIRk081IBuNWjfbHW-55" target="g4gXIRk081IBuNWjfbHW-16">
          <mxGeometry width="50" height="50" relative="1" as="geometry">
            <mxPoint x="730" y="980" as="sourcePoint" />
            <mxPoint x="780" y="930" as="targetPoint" />
          </mxGeometry>
        </mxCell>
      </root>
    </mxGraphModel>
  </diagram>
</mxfile>
